<svg xmlns="http://www.w3.org/2000/svg" viewBox="0 0 1024 768">
  <!-- Cave background -->
  <rect width="1024" height="768" fill="#1a1a2e"/>
  
  <!-- Cave opening (lighter center) -->
  <ellipse cx="512" cy="384" rx="400" ry="300" fill="#16213e" />
  <ellipse cx="512" cy="384" rx="300" ry="230" fill="#0f3460" />
  
  <!-- Cave wall texture -->
  <g opacity="0.7">
    <!-- Rock formations -->
    <path d="M200 200 Q 250 150, 300 200 T 400 180 T 500 200" stroke="#424874" fill="none" stroke-width="8"/>
    <path d="M600 200 Q 650 150, 700 200 T 800 180" stroke="#424874" fill="none" stroke-width="8"/>
    <path d="M150 250 Q 200 200, 250 250 T 350 230 T 450 250" stroke="#3d3d5c" fill="none" stroke-width="6"/>
    <path d="M550 250 Q 600 200, 650 250 T 750 230 T 850 250" stroke="#3d3d5c" fill="none" stroke-width="6"/>
    
    <!-- Stalagmites (from bottom) -->
    <path d="M300 768 L 320 650 L 340 768" fill="#2d2d44"/>
    <path d="M500 768 L 480 680 L 460 768" fill="#2d2d44"/>
    <path d="M700 768 L 680 630 L 660 768" fill="#2d2d44"/>
    
    <!-- Stalactites (from top) -->
    <path d="M400 0 L 420 120 L 440 0" fill="#2d2d44"/>
    <path d="M600 0 L 580 100 L 560 0" fill="#2d2d44"/>
  </g>
  
  <!-- Cave floor -->
  <path d="M0 600 Q 200 580, 400 610 T 800 590 T 1024 610 L1024 768 L0 768 Z" fill="#2c3e50"/>
  
  <!-- Water puddle -->
  <ellipse cx="700" cy="680" rx="120" ry="40" fill="#0099cc" opacity="0.6"/>
  
  <!-- Cave crystals -->
  <g fill="#a6dcef" opacity="0.8">
    <polygon points="250,500 260,460 270,500" />
    <polygon points="270,510 290,450 310,510" />
    <polygon points="600,480 620,420 640,480" />
  </g>
  
  <!-- Dim light from cave entrance -->
  <radialGradient id="entranceLight" cx="512" cy="384" r="200" gradientUnits="userSpaceOnUse">
    <stop offset="0%" stop-color="#e2b091" stop-opacity="0.4"/>
    <stop offset="100%" stop-color="#e2b091" stop-opacity="0"/>
  </radialGradient>
  <circle cx="512" cy="384" r="200" fill="url(#entranceLight)"/>
</svg>